<svg height="480pt" viewBox="0 -16 480 480" width="480pt" xmlns="http://www.w3.org/2000/svg"><path d="m384 120.007812c-5.636719.003907-11.261719.539063-16.800781 1.601563-6.628907-58.253906-51.992188-104.554687-110.097657-112.378906-58.105468-7.824219-114.101562 24.832031-135.902343 79.257812h-.078125c-3.03125-.320312-6.074219-.480469-9.121094-.480469-55.820312.082032-101.625 44.21875-103.773438 99.996094-2.148437 55.78125 40.125 103.308594 95.773438 107.683594 2.640625.242188 5.28125.320312 8 .320312h272c48.601562 0 88-39.398437 88-88 0-48.601562-39.398438-88-88-88zm0 0" fill="#9bc9ff"/><path d="m104 296.007812h8c-2.71875 0-5.359375-.078124-8-.320312zm0 0" fill="#9bc9ff"/><g fill="#1e81ce"><path d="m384 112.007812c-3.386719.011719-6.769531.207032-10.136719.578126-10.214843-58.832032-57.65625-104.089844-116.902343-111.527344-59.242188-7.4375-116.398438 24.6875-140.839844 79.167968-1.367188-.066406-2.714844-.21875-4.121094-.21875-59.648438.011719-108.8125 46.792969-111.789062 106.367188-2.976563 59.574219 41.277343 111.019531 100.628906 116.976562.96875.417969 283.160156.65625 283.160156.65625 53.019531 0 96-42.980468 96-96 0-53.019531-42.980469-96-96-96zm0 176s-276.863281-.0625-279.390625-.296874c-51.023437-3.929688-89.984375-47.210938-88.542969-98.367188 1.4375-51.152344 42.769532-92.175781 93.933594-93.230469-3.984375 12.921875-6.003906 26.371094-6 39.894531 0 4.417969 3.582031 8 8 8s8-3.582031 8-8c-.046875-14.894531 2.714844-29.664062 8.144531-43.535156.1875-.328125.351563-.671875.488281-1.023437 19.90625-49.847657 70.511719-80.390625 123.890626-74.777344 53.378906 5.613281 96.527343 46.015625 105.628906 98.914063-9.441406 2.597656-18.421875 6.648437-26.625 12-3.699219 2.414062-4.738282 7.375-2.324219 11.074218 2.417969 3.699219 7.375 4.742188 11.078125 2.324219 8.632812-5.652344 18.292969-9.558594 28.429688-11.496094 5.039062-.96875 10.15625-1.464843 15.289062-1.480469 44.183594 0 80 35.816407 80 80 0 44.183594-35.816406 80-80 80zm0 0"/><path d="m456 448.007812h-432c-13.253906 0-24-10.746093-24-24v-80c0-13.253906 10.746094-24 24-24h432c13.253906 0 24 10.746094 24 24v80c0 13.253907-10.746094 24-24 24zm-432-112c-4.417969 0-8 3.582032-8 8v80c0 4.417969 3.582031 8 8 8h432c4.417969 0 8-3.582031 8-8v-80c0-4.417968-3.582031-8-8-8zm0 0"/><path d="m64 416.007812c-17.671875 0-32-14.324218-32-32 0-17.671874 14.328125-32 32-32s32 14.328126 32 32c0 17.675782-14.328125 32-32 32zm0-48c-8.835938 0-16 7.164063-16 16 0 8.835938 7.164062 16 16 16s16-7.164062 16-16c0-8.835937-7.164062-16-16-16zm0 0"/><path d="m440 392.007812h-320c-4.417969 0-8-3.582031-8-8 0-4.417968 3.582031-8 8-8h320c4.417969 0 8 3.582032 8 8 0 4.417969-3.582031 8-8 8zm0 0"/></g></svg>